<?xml version="1.0" encoding="UTF-8"?><svg width="13.4mm" height="16.1mm" version="1.1" viewBox="0 0 13.4 16.1" xmlns="http://www.w3.org/2000/svg"><defs><linearGradient id="linearGradient994" x1="23.7" x2="56" y1="20" y2="58.4" gradientTransform="translate(-23.6 -19.8)" gradientUnits="userSpaceOnUse"><stop stop-color="#8d6e63" offset="0"/><stop stop-color="#795548" offset="1"/></linearGradient></defs><g transform="translate(-.0195 -.0365)" stroke-width=".265"><g fill-opacity=".24" aria-label="A"><path d="m13.4 15.5q0.0226 0.0677 0.0226 0.181 0 0.203-0.135 0.316t-0.339 0.113q-0.158 0-0.294-0.0677-0.113-0.0903-0.158-0.226l-1.9-4.65 0.0226 0.0452h-7.56l-1.83 4.61q-0.113 0.294-0.406 0.294-0.203 0-0.339-0.113-0.113-0.113-0.135-0.271-0.0226-0.0903 0.0226-0.226l6.07-14.9q0.0677-0.181 0.158-0.226 0.113-0.0677 0.271-0.0677 0.339 0 0.452 0.294zm-9.98-5.19h6.84l-3.45-8.51z"/></g><g fill="url(#linearGradient994)" aria-label="A"><path d="m13.1 15.3q0.0226 0.0677 0.0226 0.181 0 0.203-0.135 0.316t-0.339 0.113q-0.158 0-0.294-0.0677-0.113-0.0903-0.158-0.226l-1.9-4.65 0.0226 0.0452h-7.56l-1.83 4.61q-0.113 0.294-0.406 0.294-0.203 0-0.339-0.113-0.113-0.113-0.135-0.271-0.0226-0.0903 0.0226-0.226l6.07-14.9q0.0677-0.181 0.158-0.226 0.113-0.0677 0.271-0.0677 0.339 0 0.452 0.294zm-9.98-5.19h6.84l-3.45-8.51z" fill="#fff8e1"/></g></g></svg>
